<svg width="64" height="64" viewBox="0 0 64 64" xmlns="http://www.w3.org/2000/svg">
  <!-- Farcaster Logo - White arch/bridge on purple background -->
  <rect width="64" height="64" fill="#8B5CF6" rx="8"/>
  <path d="M12 20 L12 44 L20 44 L20 36 L28 36 L28 28 L36 28 L36 20 L28 20 L28 28 L20 28 L20 36 L12 36 Z" fill="white"/>
  <path d="M52 20 L52 44 L44 44 L44 36 L36 36 L36 28 L28 28 L28 20 L36 20 L36 28 L44 28 L44 36 L52 36 Z" fill="white"/>
  <path d="M28 20 L36 20 L36 28 L28 28 Z" fill="#8B5CF6"/>
</svg>

